<?xml version="1.0" standalone="no"?>
<!DOCTYPE svg PUBLIC "-//W3C//DTD SVG 20010904//EN"
 "http://www.w3.org/TR/2001/REC-SVG-20010904/DTD/svg10.dtd">
<svg version="1.0" xmlns="http://www.w3.org/2000/svg"
 width="500.000000pt" height="500.000000pt" viewBox="0 0 500.000000 500.000000"
 preserveAspectRatio="xMidYMid meet">

<g transform="translate(0.000000,500.000000) scale(0.100000,-0.100000)"
fill="#ffffff" stroke="none">
<path fill="#ffffff" d="M2305 4994 c-16 -2 -73 -9 -125 -15 -534 -61 -1054 -316 -1449 -710
-394 -395 -633 -879 -713 -1449 -20 -142 -17 -516 6 -660 128 -835 626 -1519
1371 -1885 242 -119 432 -180 705 -228 170 -29 585 -32 757 -4 442 71 868 259
1200 528 93 76 253 229 296 283 l32 40 -55 -37 c-44 -30 -57 -35 -65 -24 -11
14 -601 681 -650 734 -27 29 -81 50 -529 203 l-499 170 -215 -68 -215 -67 -49
-77 -49 -77 -77 -17 c-57 -13 -91 -29 -130 -57 l-52 -39 -128 77 c-70 42 -131
81 -135 85 -5 4 23 30 62 56 68 47 71 51 71 89 0 38 6 45 118 148 111 103 121
115 198 250 l82 141 -241 481 -240 480 -456 352 c-251 194 -469 363 -485 376
l-28 23 32 52 c17 29 35 52 38 52 8 0 1343 -567 1346 -572 1 -1 123 -176 271
-388 147 -212 269 -387 271 -389 2 -2 57 28 122 67 116 69 119 71 220 83 l102
12 88 -84 c48 -47 134 -125 190 -174 l104 -90 -162 -27 c-90 -15 -168 -29
-174 -31 -6 -3 -17 -33 -25 -68 -11 -57 -11 -64 5 -76 9 -7 191 -101 403 -209
l386 -196 272 -577 c150 -317 276 -576 281 -576 14 0 97 106 180 229 192 287
331 648 389 1009 28 172 25 587 -4 757 -48 273 -109 463 -228 705 -364 741
-1050 1243 -1875 1370 -100 15 -478 29 -545 19z"/>
</g>
</svg>
